# xmcd
#
# Track frame offsets: 
#        150
#        12768
#        32153
#        46268
#        61950
#        76695
#        94635
#        107680
#        123155
#        149655
#        163725
#        178185
#        193320
#
# Disc length: 2846 seconds
#
# Revision: 1
# Processed by: cddbd v1.5.2PL0 Copyright (c) Steve Scherf et al.
# Submitted via: ExactAudioCopy v0.90b4
#
DISCID=aa0b1c0d
DTITLE=Various Artist - OLON Single Top 100
DYEAR=2008
DGENRE=Pop
TTITLE0=DJ Jose - House Of Justice 2008
TTITLE1=DJ Rabano - Get On Down
TTITLE2=DJ Chus and Peter Gelderblom - Feelin'4 You
TTITLE3=Jeff - Als Een Paling Boven Water
TTITLE4=Sandy Dane - Peace, Love and Ice Cream
TTITLE5=Gerard Joling - Ik Hou D'r Zo Van
TTITLE6=Dive - Relaxed Fella
TTITLE7=Giovanca - On My Way
TTITLE8=Hautekietendeleeuw - Karolien Zegt
TTITLE9=Ronald Pijls - Kijk Nu Eens Naar Ons
TTITLE10=Rein Mercha - Mijn Zigeunerkoningin
TTITLE11=Sam - I Was Made For Dancing
TTITLE12=Bert Ter Brugge - Rood Hart
EXTD=
EXTT0=
EXTT1=
EXTT2=
EXTT3=
EXTT4=
EXTT5=
EXTT6=
EXTT7=
EXTT8=
EXTT9=
EXTT10=
EXTT11=
EXTT12=
PLAYORDER=
